<svg width="200" height="300" viewBox="0 0 200 300" fill="none" xmlns="http://www.w3.org/2000/svg">
<rect width="200" height="300" rx="24" fill="#3D51AD"/>
<path d="M71.4399 96.8L78.0399 112.2L93.4399 118.8L78.0399 125.4L71.4399 140.8L64.8399 125.4L49.4399 118.8L64.8399 112.2L71.4399 96.8Z" fill="white"/>
<path d="M128.56 96.8L135.16 112.2L150.56 118.8L135.16 125.4L128.56 140.8L121.96 125.4L106.56 118.8L121.96 112.2L128.56 96.8Z" fill="white"/>
<path d="M100 140L106.6 155.4L122 162L106.6 168.6L100 184L93.4 168.6L78 162L93.4 155.4L100 140Z" fill="white"/>
<path d="M71.4399 183.2L78.0399 198.6L93.4399 205.2L78.0399 211.8L71.4399 227.2L64.8399 211.8L49.4399 205.2L64.8399 198.6L71.4399 183.2Z" fill="white"/>
<path d="M128.56 183.2L135.16 198.6L150.56 205.2L135.16 211.8L128.56 227.2L121.96 211.8L106.56 205.2L121.96 198.6L128.56 183.2Z" fill="white"/>
</svg>
