<svg width="200" height="300" viewBox="0 0 200 300" fill="none" xmlns="http://www.w3.org/2000/svg">
<rect width="200" height="300" rx="24" fill="#253473"/>
<path d="M74.8 94L80.8 108L94.8 114L80.8 120L74.8 134L68.8 120L54.8 114L68.8 108L74.8 94Z" fill="white"/>
<path d="M125.2 94L131.2 108L145.2 114L131.2 120L125.2 134L119.2 120L105.2 114L119.2 108L125.2 94Z" fill="white"/>
<path d="M55 147L61 161L75 167L61 173L55 187L49 173L35 167L49 161L55 147Z" fill="white"/>
<path d="M100 146.8L106 160.8L120 166.8L106 172.8L100 186.8L94 172.8L80 166.8L94 160.8L100 146.8Z" fill="white"/>
<path d="M145 147L151 161L165 167L151 173L145 187L139 173L125 167L139 161L145 147Z" fill="white"/>
<path d="M74.8 199.6L80.8 213.6L94.8 219.6L80.8 225.6L74.8 239.6L68.8 225.6L54.8 219.6L68.8 213.6L74.8 199.6Z" fill="white"/>
<path d="M125.2 199.6L131.2 213.6L145.2 219.6L131.2 225.6L125.2 239.6L119.2 225.6L105.2 219.6L119.2 213.6L125.2 199.6Z" fill="white"/>
</svg>
