<svg width="852" height="393" viewBox="0 0 852 393" fill="none" xmlns="http://www.w3.org/2000/svg">
<path d="M852 0.119562H0V393.12H852V0.119562Z" fill="url(#paint0_linear_13_141)"/>
<path d="M838.621 349.292C845.097 355.797 850.287 362.277 852 365.509V393.12H198C198 393.12 199.739 386.055 201.049 383.058C204.073 376.846 207.525 370.365 215.764 359.792C222.24 352.483 230.138 345.94 236.085 337.874C241.289 330.817 253.059 318.742 271.653 303.962C301.861 279.949 325.481 268.413 356.374 257.479C369.338 252.89 407.294 246.772 430.832 255.66C468.061 269.717 500.148 275.027 515.099 271.024C530.294 266.956 548.673 257.209 589.18 257.227C625.436 257.243 640.03 257.952 665.493 264.357C753.433 286.478 750.5 278.12 770.5 294.12C790.5 310.12 786.396 309.034 806.207 324.954C818.314 334.683 830.679 341.313 838.621 349.292Z" fill="url(#paint1_linear_13_141)"/>
<path d="M177.591 354.736C175.661 362.927 167.861 378.061 154.318 393.12H0V0.119562H327L324.72 6.77978C322.46 13.3833 308.18 41.1767 294.307 58.72C284.897 65.6448 273.335 72.0373 262.933 76.0271C250.593 80.7601 229.352 84.0998 199.807 94.6285C176.902 102.791 139.222 112.648 122.275 133.673C118.734 138.066 114.204 142.901 114.213 150.074C114.232 165.18 114.955 174.162 119.413 185.33C123.934 196.657 133.628 215.204 142.376 229.089C148.536 238.867 155.793 249.776 165.678 269.428C175.699 289.352 182.794 332.661 177.591 354.736Z" fill="url(#paint2_linear_13_141)"/>
<path d="M524.781 8.42319C535.973 6.99627 553.887 3.54073 560.217 0.119562H851.758V251.12H851.756C837.41 251.12 823.486 251.12 815.546 250.827C805.706 249.968 800.547 249.4 793.517 248.524C775.574 243.074 743.647 236.035 727.364 223.587C712.24 212.025 693.305 190.607 683.892 179.722C670.734 164.507 655.797 147.635 644 147.943C620.974 148.545 608.696 155.175 587.808 160.923C555.537 169.802 527.993 176.668 516.687 175.183C505.821 173.757 478.543 172.401 452.999 167.722C416.863 161.103 395.82 156.144 388.208 147.943C385.024 144.513 383.187 140.454 381.83 135.9C379.269 127.304 367.724 107.307 385.388 71.3709C393.386 55.0989 400.208 49.2001 418.33 41.0704C427.911 36.7724 433.382 28.7906 464.392 19.5721C477.78 15.5922 502.187 11.3039 524.781 8.42319Z" fill="url(#paint3_linear_13_141)"/>
<path d="M250.215 393.12C225 367.62 331 115.12 238.345 248.177C145.691 381.234 135.837 130.131 135.837 130.131C135.837 130.131 138.761 77.1675 344.631 61.8935C550.5 46.6196 115.335 3.11956 115.335 3.11956C115.335 3.11956 -35.5 80.1196 30.6306 163.503C96.7612 246.886 275.43 418.62 250.215 393.12Z" fill="#00053D"/>
<path d="M449.487 185.231C449.487 185.231 757.89 -64.1383 658.663 31.1499C559.437 126.438 544.351 137.703 554.761 149.616C565.17 161.53 707.219 89.781 707.219 89.781C707.219 89.781 775.575 -22.5831 798.367 4.90041C821.159 32.384 804.759 216.605 804.759 216.605C804.759 216.605 802.446 389.554 784.925 392.152C767.405 394.75 770.557 177.2 778.216 156.32C785.875 135.441 783.338 74.4279 778.942 60.7393C774.546 47.0507 699.505 117.943 699.505 117.943C699.505 117.943 560.907 262.091 554.422 194.221C547.937 126.351 517.762 149.335 517.762 149.335L449.487 185.231Z" fill="url(#paint4_linear_13_141)"/>
<path d="M449.142 163.405C377.542 229.405 459.309 257.238 509.142 262.905L696.142 211.405L426.642 308.905C367.142 274.238 249.342 202.405 254.142 192.405C260.142 179.905 238.642 71.9048 379.642 82.9048C492.442 91.7048 457.976 128.238 426.642 145.405L449.142 163.405Z" fill="url(#paint5_linear_13_141)"/>
<path d="M519.296 229.701C471.296 258.701 478.796 229.701 478.796 229.701C470.232 227.32 466.321 221.693 466.388 217.042C441.193 211.721 412.823 200.701 461.796 200.701C473.833 200.701 482.784 201.127 489.315 201.768C488.425 199.837 488.129 197.354 488.796 194.201C494.296 168.201 519.296 200.701 519.296 200.701C519.296 200.701 567.296 200.701 519.296 229.701Z" fill="#00053D"/>
<defs>
<linearGradient id="paint0_linear_13_141" x1="426" y1="0.119562" x2="426" y2="393.12" gradientUnits="userSpaceOnUse">
<stop stop-color="#1A227D"/>
<stop offset="1" stop-color="#0C0E1F"/>
</linearGradient>
<linearGradient id="paint1_linear_13_141" x1="852" y1="322.12" x2="198" y2="322.12" gradientUnits="userSpaceOnUse">
<stop stop-color="#0C0E20"/>
<stop offset="1" stop-color="#000643"/>
</linearGradient>
<linearGradient id="paint2_linear_13_141" x1="163.5" y1="0.119562" x2="163.5" y2="393.12" gradientUnits="userSpaceOnUse">
<stop stop-color="#1C2693"/>
<stop offset="1" stop-color="#0C0E1F"/>
</linearGradient>
<linearGradient id="paint3_linear_13_141" x1="613.758" y1="0.119562" x2="613.758" y2="251.12" gradientUnits="userSpaceOnUse">
<stop stop-color="#343B86"/>
<stop offset="1" stop-color="#00053D"/>
</linearGradient>
<linearGradient id="paint4_linear_13_141" x1="449.37" y1="200.706" x2="804.859" y2="203.406" gradientUnits="userSpaceOnUse">
<stop offset="0.466346" stop-color="#0A115C"/>
<stop offset="1" stop-color="#272E78"/>
</linearGradient>
<linearGradient id="paint5_linear_13_141" x1="475.071" y1="82.1196" x2="475.071" y2="308.905" gradientUnits="userSpaceOnUse">
<stop/>
<stop offset="1" stop-color="#00053D"/>
</linearGradient>
</defs>
</svg>
